<svg id="Group_40769" data-name="Group 40769" xmlns="http://www.w3.org/2000/svg" xmlns:xlink="http://www.w3.org/1999/xlink" width="16" height="16" viewBox="0 0 16 16">
  <defs>
    <clipPath id="clip-path">
      <rect id="Rectangle_10808" data-name="Rectangle 10808" width="16" height="16" fill="#be9661"/>
    </clipPath>
  </defs>
  <g id="Group_40342" data-name="Group 40342" clip-path="url(#clip-path)">
    <path id="Path_53439" data-name="Path 53439" d="M23.323,7.116A13.4,13.4,0,0,0,16.213.039a.512.512,0,0,0-.674.294.54.54,0,0,0,.285.7,12.357,12.357,0,0,1,6.556,6.524.518.518,0,0,0,.473.316.5.5,0,0,0,.211-.047.541.541,0,0,0,.26-.706" transform="translate(-7.369 0)" fill="#be9661"/>
    <path id="Path_53440" data-name="Path 53440" d="M15.312,6.493a7.481,7.481,0,0,1,3.976,3.949.5.5,0,0,0,.457.3.486.486,0,0,0,.2-.045.521.521,0,0,0,.251-.681,8.495,8.495,0,0,0-4.513-4.482.5.5,0,0,0-.652.284.521.521,0,0,0,.275.671" transform="translate(-7.132 -2.615)" fill="#be9661"/>
    <path id="Path_53441" data-name="Path 53441" d="M13.235,10.346a1.22,1.22,0,0,0-1.844,0c-.431.428-.861.855-1.286,1.289a.293.293,0,0,1-.207.111A.3.3,0,0,1,9.75,11.7c-.279-.152-.575-.275-.844-.442A13.364,13.364,0,0,1,5.682,8.324,7.653,7.653,0,0,1,4.526,6.472a.266.266,0,0,1,.066-.34c.431-.417.851-.844,1.275-1.272a1.225,1.225,0,0,0,0-1.887c-.337-.34-.674-.674-1.011-1.014S4.16,1.26,3.809.915A1.324,1.324,0,0,0,2.887.5a1.312,1.312,0,0,0-.922.419C1.53,1.347,1.114,1.785.672,2.2A2.1,2.1,0,0,0,.012,3.622,5.993,5.993,0,0,0,.477,6.2a15.685,15.685,0,0,0,2.786,4.641,17.227,17.227,0,0,0,5.71,4.467,8.242,8.242,0,0,0,3.162.92c.068,0,.136.006.2.006a2.259,2.259,0,0,0,1.787-.763c.369-.413.785-.79,1.177-1.185a1.233,1.233,0,0,0,.007-1.876q-1.033-1.038-2.073-2.068m1.32,3.206c-.13.131-.261.259-.393.387-.272.264-.553.537-.822.838a1.223,1.223,0,0,1-1,.412c-.047,0-.095,0-.145,0a7.118,7.118,0,0,1-2.761-.816,16.274,16.274,0,0,1-5.365-4.2A14.579,14.579,0,0,1,1.459,5.836a4.926,4.926,0,0,1-.4-2.132A1.057,1.057,0,0,1,1.4,2.966c.273-.26.536-.526.8-.792.167-.169.335-.338.508-.508a.342.342,0,0,1,.185-.116.35.35,0,0,1,.188.116c.231.226.458.455.686.685l.346.346c.172.174.343.345.514.517s.332.331.5.5c.194.195.182.229,0,.409L4.945,4.3c-.359.362-.717.723-1.1,1.09a1.306,1.306,0,0,0-.29,1.489A8.568,8.568,0,0,0,4.869,8.987a14.354,14.354,0,0,0,3.484,3.162,6.654,6.654,0,0,0,.6.321c.1.049.2.1.284.143A1.338,1.338,0,0,0,9.9,12.8a1.314,1.314,0,0,0,.958-.428c.414-.425.836-.842,1.274-1.278a.347.347,0,0,1,.182-.116.347.347,0,0,1,.183.116q1.036,1.03,2.068,2.064c.159.161.175.212-.008.4" transform="translate(0 -0.238)" fill="#be9661"/>
  </g>
</svg>
