<svg xmlns="http://www.w3.org/2000/svg" width="20.823" height="20.861" viewBox="0 0 20.823 20.861">
  <path id="phone" d="M21.989,17.12v2.839a1.893,1.893,0,0,1-2.063,1.893,18.729,18.729,0,0,1-8.167-2.905,18.454,18.454,0,0,1-5.678-5.678A18.729,18.729,0,0,1,3.176,5.063,1.893,1.893,0,0,1,5.059,3H7.9A1.893,1.893,0,0,1,9.791,4.628a12.151,12.151,0,0,0,.662,2.659,1.893,1.893,0,0,1-.426,2l-1.2,1.2A15.142,15.142,0,0,0,14.5,16.164l1.2-1.2a1.893,1.893,0,0,1,2-.426,12.151,12.151,0,0,0,2.659.662A1.893,1.893,0,0,1,21.989,17.12Z" transform="translate(-2.167 -2)" fill="none" stroke="#fff" stroke-linecap="round" stroke-linejoin="round" stroke-width="2"/>
</svg>
